<svg
  id="customers"
  xmlns="http://www.w3.org/2000/svg"
  viewBox="0 0 122.88 77.72"
  style="enable-background:new 0 0 122.88 77.72"
  xml:space="preserve">
  <style
    type="text/css">.st0{fill-rule:evenodd;clip-rule:evenodd;}
  </style>
  <g>
    <path
      class="st0"
      d="M30.19,53.89c4.58,9.55,18.47,9.89,22.85,0.05c-1.2-1.21-2.09-2.51-2.97-3.8c-0.14-0.21-0.29-0.42-0.43-0.64 c-2.12,1.68-4.69,2.75-8.03,2.74c-3.61-0.01-6.33-1.39-8.56-3.43c-0.14-0.12-0.26-0.24-0.39-0.37c-0.32,0.89-0.72,1.95-1.16,2.94 C31.08,52.35,30.63,53.25,30.19,53.89L30.19,53.89L30.19,53.89z M80.2,56.92c3.68,7.69,14.86,7.96,18.39,0.04 c-0.97-0.98-1.68-2.02-2.39-3.06c-0.11-0.17-0.23-0.34-0.35-0.51c-1.71,1.35-3.77,2.21-6.46,2.21c-2.91-0.01-5.1-1.12-6.89-2.76 c-0.11-0.1-0.21-0.2-0.32-0.3c-0.26,0.71-0.58,1.57-0.93,2.37C80.91,55.68,80.55,56.41,80.2,56.92L80.2,56.92L80.2,56.92z M99.63,56.11c3.94,2.78,13.51,3.45,17.18,5.5c1.22,0.68,2.32,1.55,3.21,2.72c1.85,2.44,5.63,11.31-0.5,11.77h-11.54l1.42-15.87 c-3.09-0.61-6.37-1.07-9.79-3.05c-2.11,9.29-16.45,10.62-20.58,0.25l-0.39-1c0.76-0.41,1.05-1.32,1.37-2.06 c0.45-1.04,0.87-2.17,1.13-2.94c-1.11-1.3-2.05-2.77-2.97-4.22l-3-4.76c-1.1-1.64-1.67-3.13-1.7-4.36 c-0.02-0.58,0.08-1.1,0.29-1.56c0.22-0.48,0.57-0.88,1.03-1.2c0.22-0.15,0.46-0.27,0.73-0.37c-0.2-2.58-0.27-5.84-0.14-8.57 c0.07-0.65,0.19-1.29,0.37-1.94c0.77-2.74,2.69-4.94,5.06-6.45c1.31-0.83,2.75-1.47,4.25-1.89c0.95-0.27-0.14-2.41,0.85-2.51 c4.75-0.49,11.78,2.96,15.1,6.55c1.66,1.8,2.71,4.19,2.93,7.35l-0.19,7.78l0,0c0.83,0.25,1.36,0.78,1.58,1.64 c0.24,0.94-0.02,2.28-0.82,4.09l0,0c-0.02,0.03-0.03,0.07-0.05,0.1l-3.42,5.63c-1.25,2.07-2.53,4.14-4.19,5.78 c0.15,0.21,0.3,0.44,0.45,0.65c0.68,0.99,1.36,1.98,2.23,2.87C99.58,56.05,99.61,56.08,99.63,56.11L99.63,56.11L99.63,56.11z M77.26,36.35c-0.66,0.03-1.17,0.16-1.51,0.39c-0.2,0.13-0.34,0.3-0.43,0.5c-0.1,0.22-0.15,0.49-0.14,0.8 c0.03,0.91,0.5,2.1,1.43,3.48l0.01,0.02l0,0l3,4.76c1.2,1.91,2.46,3.86,4.03,5.29c1.5,1.38,3.33,2.31,5.75,2.32 c2.62,0.01,4.53-0.96,6.08-2.42c1.61-1.51,2.89-3.59,4.14-5.65l3.37-5.56c0.63-1.43,0.86-2.4,0.71-2.96 c-0.09-0.34-0.46-0.5-1.08-0.53c-0.14-0.01-0.27-0.01-0.41-0.01c-0.15,0.01-0.31,0.02-0.47,0.03c-0.09,0.01-0.18,0-0.26-0.02 c-0.3,0.02-0.61-0.01-0.93-0.05l1.16-5.12c-8.58,1.35-15-5.02-24.07-1.28l0.65,6.03C77.92,36.41,77.58,36.4,77.26,36.35 L77.26,36.35L77.26,36.35L77.26,36.35z M54.34,52.88c4.89,3.45,16.78,4.29,21.35,6.83c1.52,0.85,2.88,1.92,3.99,3.38 c2.3,3.03,7,14.05-0.62,14.63H64.71L66.47,58c-3.84-0.75-7.91-1.33-12.16-3.79c-2.62,11.54-20.44,13.19-25.57,0.31 c-3.81,1.92-7.52,3.02-11.96,3.7l2.76,19.49H4.17c-7.62-0.58-2.92-11.59-0.62-14.63c1.1-1.46,2.47-2.53,3.99-3.38 c4.55-2.54,16.4-3.37,21.31-6.81c0.36-0.54,0.75-1.33,1.12-2.19c0.56-1.29,1.08-2.7,1.41-3.66c-1.37-1.62-2.55-3.45-3.68-5.24 l-3.73-5.92c-1.36-2.03-2.07-3.89-2.11-5.41c-0.02-0.72,0.1-1.37,0.37-1.94c0.28-0.6,0.7-1.1,1.28-1.49 c0.27-0.18,0.57-0.33,0.9-0.46c-0.24-3.21-0.33-7.26-0.18-10.65c0.08-0.81,0.24-1.6,0.46-2.41c0.95-3.4,3.34-6.14,6.29-8.02 c1.63-1.04,3.41-1.82,5.28-2.35c1.18-0.33-0.17-3,1.05-3.12c5.91-0.6,14.64,3.68,18.77,8.14c2.07,2.24,3.37,5.2,3.64,9.13 l-0.23,9.66l0,0c1.04,0.31,1.69,0.97,1.96,2.03c0.3,1.17-0.03,2.83-1.02,5.09l0,0c-0.02,0.04-0.04,0.08-0.06,0.12l-4.25,6.99 c-1.56,2.57-3.14,5.14-5.21,7.18c0.18,0.26,0.37,0.54,0.56,0.81c0.84,1.23,1.69,2.46,2.78,3.57 C54.28,52.81,54.31,52.84,54.34,52.88L54.34,52.88L54.34,52.88z M26.54,28.33c-0.83,0.03-1.45,0.2-1.88,0.49 c-0.24,0.16-0.43,0.37-0.53,0.62c-0.13,0.28-0.19,0.61-0.18,1c0.03,1.13,0.62,2.61,1.77,4.32l0.01,0.03l0,0l3.72,5.92 c1.49,2.38,3.06,4.8,5,6.58c1.87,1.71,4.14,2.86,7.14,2.88c3.25,0.01,5.63-1.19,7.56-3c2-1.88,3.59-4.46,5.15-7.02l4.19-6.91 c0.78-1.78,1.07-2.98,0.89-3.68c-0.11-0.42-0.57-0.62-1.35-0.66c-0.17-0.01-0.34-0.01-0.51-0.01c-0.19,0.01-0.38,0.02-0.59,0.03 c-0.11,0.01-0.22,0-0.32-0.02c-0.37,0.02-0.76-0.01-1.15-0.06l1.44-6.36c-10.66,1.68-18.63-6.24-29.9-1.58l0.81,7.5 C27.37,28.4,26.94,28.39,26.54,28.33L26.54,28.33L26.54,28.33L26.54,28.33z"
      fill="currentColor"/>
  </g>
</svg>
