<?xml version="1.0" encoding="UTF-8"?> <svg xmlns="http://www.w3.org/2000/svg" xmlns:xlink="http://www.w3.org/1999/xlink" id="Слой_1" data-name="Слой 1" viewBox="0 0 2674.186 844.1365"> <defs> <style>.cls-1{fill:url(#Безымянный_градиент_33);}.cls-2{fill:url(#Безымянный_градиент_33-2);}.cls-3{fill:url(#Безымянный_градиент_36);}.cls-4{fill:#fff;}</style> <linearGradient id="Безымянный_градиент_33" x1="139.5495" y1="24.4772" x2="136.511" y2="855.6844" gradientUnits="userSpaceOnUse"> <stop offset="0" stop-color="#00caff"></stop> <stop offset="0.1225" stop-color="#08b7fd"></stop> <stop offset="0.3707" stop-color="#1d86f6"></stop> <stop offset="0.7185" stop-color="#3f38ec"></stop> <stop offset="0.953" stop-color="#5700e5"></stop> </linearGradient> <linearGradient id="Безымянный_градиент_33-2" x1="466.1397" y1="45.5575" x2="466.6689" y2="821.4691" xlink:href="#Безымянный_градиент_33"></linearGradient> <linearGradient id="Безымянный_градиент_36" x1="371.7186" y1="515.6274" x2="428.5798" y2="27.6698" gradientUnits="userSpaceOnUse"> <stop offset="0" stop-color="#00caff"></stop> <stop offset="0.1564" stop-color="#139df9"></stop> <stop offset="0.3705" stop-color="#2b65f2"></stop> <stop offset="0.5695" stop-color="#3e3aec"></stop> <stop offset="0.747" stop-color="#4c1ae8"></stop> <stop offset="0.8965" stop-color="#5407e6"></stop> <stop offset="1" stop-color="#5700e5"></stop> </linearGradient> </defs> <title>logo &amp;amp; text logo &amp;amp; slogan</title> <path class="cls-1" d="M200.591,431.9172v126.39q0,4.41-.11,8.76c-2.74,110.23-56.94,199.06-124.85,205.43-.04,0-.07.01-.11.01v-340.59h.11v-154.85c2.74-110.23,56.94-199.06,124.85-205.43v360.28Z"></path> <path class="cls-2" d="M675.3362,246.7632v49.73a175.6522,175.6522,0,0,1-4.06,37.66,175.19,175.19,0,0,0-171.08-137.52h-117.45v150h-.21v85.28h.11v126.39q0,4.41-.11,8.76c-2.74,110.23-56.94,199.06-124.85,205.43-.04,0-.07.01-.11.01v-340.59h.11V71.6332h242.51A175.1407,175.1407,0,0,1,675.3362,246.7632Z"></path> <path class="cls-3" d="M671.2792,334.1573a175.2091,175.2091,0,0,1-171.08,137.48h-346.46a.7719.7719,0,0,1,.02-.15h-55.31c7.54-67.91,112.69-122.11,243.18-124.85h135.04c.97,0,1.94-.02,2.9-.07a65.6693,65.6693,0,0,0,62.77-65.61v-18.65a65.6681,65.6681,0,0,0-65.67-65.67h23.53A175.19,175.19,0,0,1,671.2792,334.1573Z"></path> <path class="cls-4" d="M882.2437,422.0684H818.7964V72.1339h63.4473Z"></path> <path class="cls-4" d="M1305.1421,218.55q0,21.7221-5.3691,38.8a109.0476,109.0476,0,0,1-14.5195,30.1377,102.332,102.332,0,0,1-21.1075,22.3281,122.7894,122.7894,0,0,1-25.0136,15.13,124.3925,124.3925,0,0,1-26.3535,8.541,126.57,126.57,0,0,1-25.0137,2.6841H1044.2774V272.7242h143.4878a73.7906,73.7906,0,0,0,22.084-5.0029,52.7748,52.7748,0,0,0,16.9609-10.8589,47.1908,47.1908,0,0,0,10.9805-16.4717,57.77,57.77,0,0,0,3.9043-21.8408V189.755a83.7009,83.7009,0,0,0-5.1231-21.9624,52.0322,52.0322,0,0,0-10.6152-17.0821,47.6847,47.6847,0,0,0-16.2285-11.103,55.9725,55.9725,0,0,0-21.9629-4.0264h-143q-12.6908,0-19.2779,6.5884-6.5888,6.5889-6.5888,19.0342V422.0684H955.4517V161.2037q0-24.3984,8.9067-41.4844,8.9057-17.0778,22.2066-27.5752a87.6276,87.6276,0,0,1,28.917-15.2514,99.35,99.35,0,0,1,28.7954-4.7588h143.4878q21.4716,0,38.5566,5.4907a111.71,111.71,0,0,1,30.1367,14.6416,100.05,100.05,0,0,1,22.2071,21.1084,130.7369,130.7369,0,0,1,15.1289,25.0127,120.7127,120.7127,0,0,1,8.664,26.355,126.91,126.91,0,0,1,2.6836,25.0127Z"></path> <path class="cls-4" d="M1583.0894,221.7222H1440.3335q-12.9375,0-19.5224,6.4668-6.5889,6.4688-6.5889,18.9122V422.0684h-63.4473V247.1012a95.68,95.68,0,0,1,4.1485-29.2832,83.837,83.837,0,0,1,11.1035-22.8165,76.9338,76.9338,0,0,1,15.9844-16.8378,92.4633,92.4633,0,0,1,18.9121-11.3472,97.258,97.258,0,0,1,20.01-6.4668,94.7238,94.7238,0,0,1,18.9121-2.0742h143.2441Z"></path> <path class="cls-4" d="M1911.7935,332.9986a96.95,96.95,0,0,1-4.1484,29.4053,85.8249,85.8249,0,0,1-10.9815,22.9385,74.7187,74.7187,0,0,1-15.8613,16.8379,92.6255,92.6255,0,0,1-18.9121,11.3471,97.126,97.126,0,0,1-20.0108,6.4668,95.5477,95.5477,0,0,1-19.1562,2.0742H1708.2749a101.6891,101.6891,0,0,1-28.7949-4.6367,84.1383,84.1383,0,0,1-51.124-42.8266q-8.9106-16.9578-8.9072-41.6065V247.1012q0-24.3985,8.9072-41.3624a84.1391,84.1391,0,0,1,51.124-42.8266,101.81,101.81,0,0,1,28.7949-4.6367h114.4483q24.4,0,41.4844,8.7851,17.0785,8.7848,27.5752,22.084a87.6935,87.6935,0,0,1,15.2519,28.9175,100.0769,100.0769,0,0,1,4.7588,29.0391Zm-63.4473-85.4092q0-13.1776-6.5888-19.5224-6.5889-6.3427-19.0342-6.3448h-113.96q-12.6914,0-19.2783,6.4668-6.5889,6.4688-6.5889,18.9122v85.8974q0,12.4453,6.5889,19.0342t19.2783,6.5889h113.96q12.9316,0,19.2783-6.5889,6.3428-6.5889,6.3447-19.0342Z"></path> <path class="cls-4" d="M2255.1392,332.9986a96.95,96.95,0,0,1-4.1484,29.4053,85.8249,85.8249,0,0,1-10.9815,22.9385A74.7,74.7,0,0,1,2224.147,402.18a92.5718,92.5718,0,0,1-18.9121,11.3471,97.0981,97.0981,0,0,1-20.01,6.4668,95.5477,95.5477,0,0,1-19.1562,2.0742H2051.6207a95.63,95.63,0,0,1-29.2833-4.1484,83.7829,83.7829,0,0,1-22.8164-11.103,76.9328,76.9328,0,0,1-16.8378-15.9839,92.5043,92.5043,0,0,1-11.3477-18.9121,97.0557,97.0557,0,0,1-6.4668-20.01,94.4745,94.4745,0,0,1-2.0742-18.9121V247.1012q0-24.3985,8.9072-41.3624a84.1391,84.1391,0,0,1,51.124-42.8266,101.81,101.81,0,0,1,28.795-4.6367h114.4482v63.4467h-113.96q-12.6914,0-19.2783,6.4668-6.5889,6.4688-6.5889,18.9122v85.41q0,12.9367,6.4668,19.522,6.4629,6.5889,18.9122,6.5889h114.4482q12.9316,0,19.2783-6.5889,6.3427-6.5889,6.3447-19.0342V71.6728h63.4473Z"></path> <path class="cls-4" d="M2517.7115,422.0684H2403.2632a101.8618,101.8618,0,0,1-29.1611-4.6367,86.0889,86.0889,0,0,1-28.917-15.2514,83.4061,83.4061,0,0,1-22.207-27.5752q-8.7847-16.9578-8.7852-41.6065V158.2755H2377.64V332.9986q0,12.4453,6.5888,19.0342t19.5225,6.5889h113.96Zm88.8261,25.3789a96.9541,96.9541,0,0,1-4.1484,29.4053,85.8894,85.8894,0,0,1-10.9814,22.9385,74.7277,74.7277,0,0,1-15.8614,16.8379,92.5717,92.5717,0,0,1-18.9121,11.3462,97.8479,97.8479,0,0,1-19.8886,6.4668,94.0388,94.0388,0,0,1-19.0342,2.0742H2403.2632V473.07h114.4483q12.6855,0,19.0342-6.5884,6.3428-6.5889,6.3447-19.0342V158.2755h63.4472Z"></path> <path class="cls-4" d="M818.1806,772.2236q1.3212-10.3051,2.5542-20.3007t2.6421-21.711l5.1963-41.3066q1.497-11.5371,2.6865-21.4024,1.1888-9.8628,2.5981-20.874h12.4185q5.9,14.0933,11.3179,27.3037,5.4162,13.2114,10.789,26.2461L889.6093,751.79h1.0566l21.1382-51.6113q5.3709-13.122,10.7451-26.2461,5.3709-13.1235,11.1851-27.3037h12.4189q1.3206,10.834,2.51,20.7422t2.5981,21.5342l5.1084,41.6592q1.4077,11.4506,2.5982,21.2695,1.19,9.8217,2.4224,20.39H949.5878q-2.2024-17.7025-4.0952-33.6005-1.8956-15.8966-3.5674-29.7256l-4.8437-39.6328h-.9688L918.85,711.9805q-6.3413,15.5889-12.6387,31.1787T894.453,772.2236H885.91q-3.4352-8.4551-7.5747-18.54t-8.4991-20.7412q-4.3593-10.6553-8.5874-20.6973l-17.6147-42.98h-.9688l-4.7563,39.6328q-1.6735,13.74-3.6108,29.7256t-4.0513,33.6005Z"></path> <path class="cls-4" d="M990.1015,772.2236q3.7858-10.2158,7.9267-21.3584,4.139-11.14,7.9268-21.2695l15.9414-43.0683q4.314-11.5372,7.7944-20.962,3.4784-9.4233,7.002-18.9365h16.5581q3.5215,9.69,6.958,19.0244,3.435,9.3369,7.6626,20.9619l15.853,43.2442q3.786,10.3945,7.8389,21.3584,4.05,10.9657,7.6626,21.0058h-12.8589q-4.0525-11.2734-8.3232-23.208-4.273-11.9325-8.0586-22.5908l-24.397-68.17h-1.4092l-24.5727,67.5537q-3.9632,11.01-8.3233,23.0313t-8.499,23.3837Zm21.4018-33.0283.8809-10.04h65.7036l.7046,10.04Z"></path> <path class="cls-4" d="M1132.6933,772.2236V646.6289h12.331V772.2236Zm77.7705,0q-9.0732-9.3339-16.999-17.4384-7.9263-8.1021-15.501-15.8536l-25.8057-26.4228h-8.8076V702.1162h8.8076l22.2822-22.1953q7.8384-7.8369,15.502-15.501l17.791-17.791h15.5889q-10.1293,10.0415-19.7285,19.5527t-19.1123,19.0245l-24.1328,23.956-.1758-5.3721,26.8623,27.7432q6.2533,6.4307,13.3877,13.8281t13.96,14.4434q6.8247,7.0473,12.0225,12.4189Z"></path> <path class="cls-4" d="M1260.1366,772.2236V646.6289h76.5371v10.833h-71.0761l6.6933-9.1592V770.374l-6.165-8.9834h70.6357v10.833Zm9.5118-58.4814V703.2607h63.3261v10.4815h-63.3261Z"></path> <path class="cls-4" d="M1419.3749,772.2236V646.6289h42.4522a74.1848,74.1848,0,0,1,25.8935,4.1836A49.9237,49.9237,0,0,1,1506.745,663.1a53.3232,53.3232,0,0,1,11.7578,19.5957,79.39,79.39,0,0,1,4.0079,26.2022,83.2488,83.2488,0,0,1-3.5674,24.7939,54.3671,54.3671,0,0,1-11.1856,20.125,51.1679,51.1679,0,0,1-19.9931,13.5195q-12.375,4.8882-30.1651,4.8877h-38.2246Zm12.419-10.5693h25.9814q19.2,0,30.5625-6.958a39.5482,39.5482,0,0,0,16.3379-18.9356,70.1578,70.1578,0,0,0,4.9756-27.1269,71.0428,71.0428,0,0,0-2.95-21.1816,43.2994,43.2994,0,0,0-9.0274-16.25,39.2791,39.2791,0,0,0-15.5019-10.3926q-9.4248-3.6108-22.37-3.6114h-28.0078V761.6543Z"></path> <path class="cls-4" d="M1559.8515,772.2236V646.6289h40.9551q14.09,0,23.34,3.3916,9.2475,3.3912,13.8272,10.7451t4.58,19.2442a43.6656,43.6656,0,0,1-3.9189,18.583q-3.92,8.4565-13.2559,13.5635-9.3354,5.1093-25.4531,5.1972l3.5225-5.6367,20.5214,24.66q4.7564,5.726,10.129,12.1982,5.3715,6.4746,10.5253,12.6387,5.1519,6.167,9.1153,11.01h-14.708q-6.6943-8.1019-12.9034-15.6328T1613.8417,741.75l-22.8994-28.1846,7.6621,5.7256h-28.7119V708.8975h24.66q12.0659,0,19.9052-2.7735a21.3262,21.3262,0,0,0,11.5821-8.8955q3.7427-6.1215,3.7431-16.1621,0-8.6309-2.7744-13.4756a17.0151,17.0151,0,0,0-7.2226-7.0459,28.58,28.58,0,0,0-9.5557-2.7744,89.5824,89.5824,0,0,0-9.9522-.5723H1564.079l7.9268-8.8955V772.2236Z"></path> <path class="cls-4" d="M1687.3818,772.2236V646.6289h76.5371v10.833h-71.0762l6.6934-9.1592V770.374l-6.1651-8.9834h70.6358v10.833Zm9.5117-58.4814V703.2607H1760.22v10.4815h-63.3261Z"></path> <path class="cls-4" d="M1790.5175,772.2236q3.7851-10.2158,7.9268-21.3584,4.138-11.14,7.9267-21.2695l15.9414-43.0683q4.314-11.5372,7.7949-20.962,3.4776-9.4233,7.002-18.9365h16.5576q3.5216,9.69,6.958,19.0244,3.4352,9.3369,7.6621,20.9619l15.8535,43.2442q3.7867,10.3945,7.8389,21.3584,4.05,10.9657,7.6621,21.0058h-12.8584q-4.0516-11.2734-8.3232-23.208-4.2731-11.9325-8.0586-22.5908l-24.3965-68.17h-1.4092l-24.5732,67.5537q-3.9639,11.01-8.3233,23.0313t-8.499,23.3837Zm21.4023-33.0283.8809-10.04h65.7031l.7051,10.04Z"></path> <path class="cls-4" d="M1928.3534,772.2236q1.3214-10.3051,2.5537-20.3007t2.6426-21.711l5.1963-41.3066q1.4971-11.5371,2.6865-21.4024,1.19-9.8628,2.5977-20.874h12.4189q5.9,14.0933,11.3174,27.3037t10.7891,26.2461l21.2265,51.6113h1.0567l21.1377-51.6113q5.3715-13.122,10.7451-26.2461,5.3716-13.1235,11.1855-27.3037h12.419q1.3213,10.834,2.51,20.7422t2.5986,21.5342l5.1084,41.6592q1.4078,11.4506,2.5976,21.2695,1.1895,9.8217,2.4219,20.39h-11.8017q-2.2017-17.7025-4.0957-33.6005t-3.5664-29.7256l-4.8448-39.6328h-.9687l-17.2627,42.7158q-6.3414,15.5889-12.6387,31.1787t-11.7578,29.0644h-8.543q-3.435-8.4551-7.5742-18.54-4.141-10.084-8.5-20.7412-4.3593-10.6553-8.5869-20.6973l-17.6152-42.98h-.9688l-4.7558,39.6328q-1.6745,13.74-3.6114,29.7256t-4.0508,33.6005Z"></path> <path class="cls-4" d="M2156.3769,772.2236V646.6289h40.9551q14.09,0,23.34,3.3916,9.2475,3.3912,13.8271,10.7451t4.58,19.2442a43.6656,43.6656,0,0,1-3.9189,18.583q-3.92,8.4565-13.2559,13.5635-9.3354,5.1093-25.4531,5.1972l3.5225-5.6367,20.5214,24.66q4.7564,5.726,10.1289,12.1982,5.3716,6.4746,10.5254,12.6387,5.1519,6.167,9.1153,11.01h-14.708q-6.6943-8.1019-12.9034-15.6328T2210.3671,741.75l-22.8994-28.1846,7.6621,5.7256h-28.7119V708.8975h24.66q12.066,0,19.9053-2.7735a21.3256,21.3256,0,0,0,11.582-8.8955q3.7428-6.1215,3.7432-16.1621,0-8.6309-2.7744-13.4756a17.0148,17.0148,0,0,0-7.2227-7.0459,28.5792,28.5792,0,0,0-9.5556-2.7744,89.5838,89.5838,0,0,0-9.9522-.5723h-36.1992l7.9268-8.8955V772.2236Z"></path> <path class="cls-4" d="M2283.9062,772.2236V646.6289h76.5371v10.833h-71.0762l6.6934-9.1592V770.374l-6.1651-8.9834h70.6358v10.833Zm9.5117-58.4814V703.2607h63.3262v10.4815h-63.3262Z"></path> <path class="cls-4" d="M2387.0419,772.2236q3.7851-10.2158,7.9268-21.3584,4.1382-11.14,7.9267-21.2695l15.9414-43.0683q4.314-11.5372,7.795-20.962,3.4774-9.4233,7.0019-18.9365h16.5576q3.5216,9.69,6.958,19.0244,3.4352,9.3369,7.6621,20.9619l15.8536,43.2442q3.7866,10.3945,7.8388,21.3584,4.05,10.9657,7.6621,21.0058h-12.8584q-4.0516-11.2734-8.3232-23.208-4.2729-11.9325-8.0586-22.5908l-24.3965-68.17H2441.12l-24.5732,67.5537q-3.9639,11.01-8.3232,23.0313t-8.4991,23.3837Zm21.4024-33.0283.8808-10.04h65.7031l.7051,10.04Z"></path> <path class="cls-4" d="M2529.6337,772.2236V646.6289h12.419V770.374l-4.9327-9.3359h69.3145v11.1855Z"></path> <rect class="cls-4" x="817.7431" y="584.1035" width="1789.5742" height="9"></rect> </svg> 